<svg width="15" height="15" viewBox="0 0 13 13" fill="none" xmlns="http://www.w3.org/2000/svg">
  <path d="M11.742 12.0717C11.6006 12.2131 11.445 12.2838 11.2753 12.2838C11.1056 12.2838 10.9501 12.2131 10.8086 12.0717L6.16295 7.42598L1.55968 12.0292C1.41826 12.1707 1.2627 12.2414 1.09299 12.2414C0.923289 12.2414 0.767726 12.1707 0.626304 12.0292L0.32932 11.7323C0.187898 11.5908 0.117187 11.4353 0.117188 11.2656C0.117187 11.0959 0.187898 10.9403 0.329319 10.7989L4.93258 6.19561L0.414172 1.6772C0.272751 1.53578 0.20204 1.38021 0.20204 1.21051C0.20204 1.0408 0.272751 0.885239 0.414172 0.743817L0.73237 0.42562C0.873792 0.284198 1.02935 0.213487 1.19906 0.213487C1.36877 0.213488 1.52433 0.284198 1.66575 0.42562L6.18416 4.94403L10.8086 0.319553C10.9501 0.178132 11.1056 0.107421 11.2753 0.107422C11.445 0.107422 11.6006 0.178133 11.742 0.319554L12.039 0.616539C12.1804 0.75796 12.2511 0.913524 12.2511 1.08323C12.2511 1.25293 12.1804 1.4085 12.039 1.54992L7.41453 6.1744L12.0602 10.8201C12.2016 10.9615 12.2724 11.1171 12.2724 11.2868C12.2724 11.4565 12.2016 11.612 12.0602 11.7535L11.742 12.0717Z" fill="#172430"/>
</svg>
